<svg xmlns="http://www.w3.org/2000/svg" viewBox="0 0 130 130"><defs><style>.cls-1{fill:#FFFFFF;}</style></defs><title>Asset 1</title><g id="Layer_2" data-name="Layer 2"><g id="Layer_1-2" data-name="Layer 1"><g id="Layer_2-2" data-name="Layer 2"><g id="Isolation_Mode" data-name="Isolation Mode"><path id="Combined-Shape-Copy-8" class="cls-1" d="M71.32,1.32A4.49,4.49,0,0,1,74.5,0h51A4.5,4.5,0,0,1,130,4.5h0v52a4.5,4.5,0,0,1-4.5,4.5H113v9h12.5a4.5,4.5,0,0,1,4.5,4.5v17a4.5,4.5,0,0,1-4.5,4.5h-34a4.5,4.5,0,0,1,0-9H121V79H79v42h46.5a4.5,4.5,0,0,1,4.5,4.5h0a4.5,4.5,0,0,1-4.5,4.5h-51a4.5,4.5,0,0,1-4.5-4.5h0V113H64v12.5h0a4.5,4.5,0,0,1-4.5,4.5H4.5A4.5,4.5,0,0,1,0,125.5H0v-17H0A4.5,4.5,0,0,1,4.5,104H34V91.5A4.5,4.5,0,0,1,38.5,87H51V79H9v8H21.5A4.5,4.5,0,0,1,26,91.5h0A4.5,4.5,0,0,1,21.5,96H4.5A4.5,4.5,0,0,1,0,91.5H0v-17H0A4.5,4.5,0,0,1,4.5,70H17V61H4.5A4.5,4.5,0,0,1,0,56.5V4.5A4.5,4.5,0,0,1,4.5,0h17A4.5,4.5,0,0,1,26,4.5h0V17h8V4.5A4.5,4.5,0,0,1,38.5,0h17A4.5,4.5,0,0,1,60,4.5h0V17H70V4.5A4.49,4.49,0,0,1,71.32,1.32ZM79,9V52h8V39.5a4.5,4.5,0,0,1,9,0v17h0A4.5,4.5,0,0,1,91.5,61h-17A4.5,4.5,0,0,1,70,56.5V26H60V56.5A4.5,4.5,0,0,1,55.5,61h-17a4.5,4.5,0,0,1,0-9H51V9H43V21.5A4.5,4.5,0,0,1,38.5,26h-17A4.5,4.5,0,0,1,17,21.5V9H9V52H21a4.5,4.5,0,0,1,5,4.47V70H55.5A4.5,4.5,0,0,1,60,74.5v17h0A4.5,4.5,0,0,1,55.5,96H43v12.5h0a4.5,4.5,0,0,1-4.5,4.5H9v8H55V108.5a4.5,4.5,0,0,1,4.5-4.5H70V74.5A4.5,4.5,0,0,1,74.5,70H104V39.5a4.5,4.5,0,0,1,9,0V52h8V9Zm12.5,8h17.3a4.5,4.5,0,0,1,4.5,4.5h0a4.5,4.5,0,0,1-4.5,4.5H91.5a4.5,4.5,0,0,1,0-9Zm-70,16h17A4.5,4.5,0,0,1,43,37.5h0A4.5,4.5,0,0,1,38.5,42h-17a4.5,4.5,0,0,1,0-9Zm70,71h34a4.5,4.5,0,0,1,0,9h-34a4.5,4.5,0,0,1,0-9Z"/></g></g></g></g></svg>